PathFileType	4	(X/Y/Z)	OpenSim_Sub06_CSBaseline_Gyro.trc
DataRate	CameraRate	NumFrames	NumMarkers	Units	OrigDataRate	OrigDataStartFrame	OrigNumFrames
100	100	31	8	m	100	1	8492
Frame#	Time	torso_imu_offset_imu	pelvis_imu_offset_imu	tibia_r_imu_offset_imu	femur_r_imu_offset_imu	tibia_l_imu_offset_imu	femur_l_imu_offset_imu	toes_r_imu_offset_imu	toes_l_imu_offset_imu
				X1	Y1	Z1	X2	Y2	Z2	X3	Y3	Z3	X4	Y4	Z4	X5	Y5	Z5	X6	Y6	Z6	X7	Y7	Z7	X8		Y8	Z8	

1	0	-0.04628711	0.05159519	0.00662860	-0.03619124	-0.01906823	-0.01509380	-0.00949547	0.00029152	0.00961844	-0.02248685	0.02248894	0.01718180	-0.00857396	0.00174540	-0.00626826	-0.03641880	-0.00919368	0.00366775	0.00125205	0.00918051	0.00335593	-0.00085858	0.01591877	-0.00666598
2	0.01000000	-0.05423147	0.06253660	0.00061355	-0.03962726	-0.01801348	-0.01491431	-0.01552348	-0.00160786	0.00994031	-0.02347186	0.02432306	0.01748921	-0.00519942	0.00273338	-0.00689889	-0.03709498	-0.00833778	0.00533579	0.00150285	0.01001457	0.00215099	-0.00053063	0.01943945	-0.00644802
3	0.02000000	-0.05075164	0.06069609	-0.00617318	-0.04209363	-0.02250474	-0.01644670	-0.01738983	-0.00388901	0.00894401	-0.02505224	0.02360296	0.01933307	-0.00667106	0.00223849	-0.00393872	-0.03952307	-0.01208409	0.00355148	0.00101816	0.00983368	0.00200208	-0.00365333	0.01793414	-0.00525453
4	0.03000000	-0.04404073	0.05753771	-0.01249306	-0.04268194	-0.02176553	-0.01692677	-0.02132116	-0.00138920	0.00856180	-0.02378780	0.02453948	0.01797318	-0.00654210	0.00471471	-0.00484124	-0.03730266	-0.01257677	0.00842914	0.00503399	0.01370493	0.00204731	-0.00151144	0.02059185	-0.00672738
5	0.04000000	-0.05162061	0.06079408	-0.00955498	-0.05148720	-0.02378176	-0.01523808	-0.01895215	-0.00062380	0.00610381	-0.02472816	0.01833240	0.01598372	-0.01384485	0.00124020	-0.00526453	-0.03932970	-0.01757206	0.00265692	0.00041319	0.01396666	0.00423948	-0.00507746	0.02222130	-0.00185688
6	0.05000000	-0.05622660	0.07051546	-0.01526030	-0.04878439	-0.02076674	-0.01514966	-0.02182777	-0.00286221	0.00691876	-0.02127425	0.01747454	0.01984324	-0.01059001	-0.00199009	-0.00847502	-0.03322817	-0.00920942	0.00467476	0.00002966	0.00848214	0.00162406	-0.00109943	0.02299500	-0.00761244
7	0.06000000	-0.04923667	0.06861481	-0.02117612	-0.05278721	-0.02248449	-0.01769279	-0.01404511	0.00111386	0.00445948	-0.01813481	0.01683893	0.02212329	-0.01335291	0.00192726	-0.00509541	-0.03562838	-0.01519780	0.00697168	0.00568774	0.01522951	0.00619909	-0.00239547	0.02567615	-0.00514948
8	0.07000000	-0.04956603	0.06279808	-0.03485820	-0.05085798	-0.02849846	-0.01191002	-0.01327972	0.00175555	0.00409683	-0.01920444	0.01704183	0.02110227	-0.01418941	0.00085106	-0.00547010	-0.03289707	-0.01123798	0.00999105	0.00030355	0.01373214	0.00446659	-0.00510884	0.02088579	-0.00518278
9	0.08000000	-0.04682845	0.05953184	-0.04314634	-0.04966408	-0.02655990	-0.01611088	-0.01148869	-0.00122440	0.00513366	-0.02189594	0.01789899	0.02347914	-0.01434354	0.00171562	-0.00346730	-0.03440450	-0.00878250	0.01245245	0.00179629	0.01447742	0.00373669	-0.00429812	0.02285888	-0.00864386
10	0.09000000	-0.04982130	0.06148794	-0.05091372	-0.04977564	-0.02387063	-0.01498009	-0.00826399	-0.00114700	0.00433152	-0.02680169	0.01737409	0.02119739	-0.01482418	0.00416508	-0.00434415	-0.03376616	-0.00957812	0.01651986	0.00228091	0.01462461	0.00358795	-0.00307878	0.02367902	-0.00702095
11	0.10000000	-0.05156382	0.05740215	-0.05590565	-0.04845169	-0.02274444	-0.01504380	-0.00991048	-0.00106929	0.00337418	-0.03109665	0.02237032	0.02247469	-0.01153556	0.00472301	-0.00484496	-0.04043727	-0.00789645	0.01670356	0.00148550	0.01552988	0.00616574	-0.00398483	0.02460650	-0.00506265
12	0.11000000	-0.05319673	0.05146828	-0.06416264	-0.05157915	-0.02123127	-0.01141201	-0.01129070	-0.00452546	0.00201254	-0.03147907	0.02314508	0.02307915	-0.00346281	0.00252423	-0.00386391	-0.04228719	-0.00908331	0.02065758	0.00469183	0.01512114	0.00483440	-0.00455827	0.02637601	-0.00675329
13	0.12000000	-0.05074943	0.04925629	-0.06865447	-0.04967362	-0.01929521	-0.01306494	-0.01553010	-0.00388903	0.00487619	-0.02983063	0.01813723	0.01802403	-0.00053198	0.00558914	-0.00588801	-0.04731379	-0.01290565	0.02578008	-0.00010545	0.01445674	0.00636034	-0.00412791	0.02517447	-0.00694120
14	0.13000000	-0.04754695	0.04862815	-0.07687062	-0.05282200	-0.01703783	-0.01654554	-0.01329086	-0.00173699	0.00408047	-0.03002723	0.01286044	0.01963330	-0.00155770	0.00497167	-0.00108382	-0.05165980	-0.01322051	0.03076205	0.00045480	0.01433120	0.00963956	-0.00050673	0.02502188	-0.00596876
15	0.14000000	-0.04874756	0.04148460	-0.07827884	-0.05320821	-0.00793687	-0.01413486	-0.01215073	-0.00167443	0.00691011	-0.02708179	0.01139500	0.02210624	0.00408818	0.00141837	-0.00451661	-0.05213605	-0.01659022	0.02429396	0.00332321	0.01460237	0.01093824	-0.00416807	0.02632970	-0.00717069
16	0.15000000	-0.05153083	0.04313057	-0.07776069	-0.05325951	-0.00568480	-0.01636098	-0.01122542	0.00038451	0.00543074	-0.03034892	0.01530909	0.01677104	0.00533672	0.00531435	-0.00719863	-0.04627723	-0.01558276	0.02724803	0.00169545	0.01583041	0.01016270	-0.00548710	0.02587946	-0.00198694
17	0.16000000	-0.05379799	0.04532224	-0.07251055	-0.05333459	-0.00125353	-0.01559268	-0.01341125	-0.00476483	0.00555669	-0.02770436	0.00994729	0.01655260	0.00679143	0.00282110	-0.00561387	-0.04327401	-0.01524706	0.03088392	0.00216781	0.01419168	0.01272241	-0.00412818	0.02466866	-0.00472695
18	0.17000000	-0.05348956	0.04753678	-0.06448574	-0.05311726	-0.00063714	-0.01331475	-0.01393420	-0.00187240	0.01076709	-0.03222869	0.00997943	0.01182522	0.00950650	0.00173405	-0.00799620	-0.04289304	-0.01226821	0.03580192	0.00107894	0.01678681	0.01633568	-0.00441067	0.02801345	-0.00519498
19	0.18000000	-0.04888959	0.04696171	-0.05803882	-0.05430675	0.00203902	-0.01373668	-0.01599952	-0.00494405	0.00849617	-0.03560618	0.01096214	0.00960999	0.01199842	0.00547589	-0.00992268	-0.03415757	-0.01059416	0.03714407	0.00174578	0.01545202	0.01944993	-0.00343438	0.02712881	-0.00322256
20	0.19000000	-0.04053340	0.04811264	-0.04699465	-0.05353169	0.00590717	-0.01476616	-0.01642967	-0.00407511	0.01027103	-0.03607753	0.01073907	0.00769231	0.01071042	0.00095200	-0.01164673	-0.03049778	-0.00427105	0.04499549	-0.00135460	0.01663935	0.01957352	-0.00916330	0.02349681	-0.00424897
21	0.20000000	-0.02171366	0.05068210	-0.04094431	-0.05194130	0.00121969	-0.00939375	-0.02904348	-0.00101534	0.00796562	-0.04660705	0.00784435	0.00111234	0.01578505	0.00666259	-0.01499700	-0.03151787	-0.01138093	0.04340462	-0.00111528	0.01531225	0.02221366	-0.00061814	0.03034702	-0.00581333
22	0.21000000	-0.00763876	0.04458527	-0.02971718	-0.05122418	0.00591860	-0.01008003	-0.02521098	0.00313578	0.01030767	-0.04706781	0.00845551	0.00299174	0.02183839	0.00078317	-0.01347881	-0.02891785	-0.00741060	0.05183779	-0.00148784	0.01405521	0.02276041	-0.00443458	0.02795134	-0.00214187
23	0.22000000	0.00453135	0.04647983	-0.02578011	-0.04659980	0.00721785	-0.00606460	-0.01868197	0.00282775	0.01647464	-0.03782757	0.00284548	0.00265846	0.02103396	-0.00063326	-0.01488478	-0.03033765	-0.00904469	0.05246435	-0.00478122	0.00886965	0.01561254	-0.00398867	0.03123431	0.00240106
24	0.23000000	0.02600913	0.04310035	-0.01598861	-0.04698881	0.00851926	-0.00186290	-0.00299559	0.00186832	0.01674468	-0.03257268	0.00314499	0.00232675	0.02188362	0.00061607	-0.02560467	-0.02816072	-0.00918545	0.05445141	-0.00395285	0.00852852	0.02208379	-0.00988697	0.03058025	-0.00210202
25	0.24000000	0.04357396	0.03551134	-0.01127246	-0.04741742	0.01126862	-0.00000543	0.00872751	-0.00156785	0.01492446	-0.02834949	0.00799978	0.00399856	0.02269197	-0.00062107	-0.02267397	-0.03505044	-0.00650122	0.05287638	-0.00233853	0.00830962	0.02215459	-0.00047062	0.03193047	-0.00236281
26	0.25000000	0.05892711	0.03855907	-0.00265139	-0.04302705	0.00928176	0.00075665	0.01929827	-0.00064474	0.01291960	-0.02967960	0.00883445	0.00727554	0.03247122	-0.00754299	-0.02574229	0.03738334	0.00217474	0.01971784	-0.00169340	0.00956869	0.02214352	-0.00712324	0.03520796	0.00004680
27	0.26000000	0.07703784	0.03777363	0.00539093	-0.04090512	0.01164715	0.00258001	0.02798804	0.00088117	0.01492518	-0.02671231	0.00561602	0.00867667	0.02995334	-0.00581858	-0.02853488	-0.02991687	0.00337803	0.03793349	0.00086056	0.01034917	0.02312699	-0.00267745	0.03273016	-0.00252720
28	0.27000000	0.08669663	0.04236066	0.00874628	-0.03416837	0.00993156	0.00362285	0.03744283	-0.00119706	0.01390375	-0.02142068	0.00252943	0.01079602	0.03102038	-0.00669154	-0.03159749	-0.02140700	-0.04802875	0.03596680	0.00056410	0.00779966	0.02440249	-0.00405922	0.03870933	0.00075738
29	0.28000000	0.10010919	0.03932680	0.01159217	-0.03242533	0.01191159	0.00527164	0.04388974	0.00098616	0.01205778	-0.00793294	0.00772307	0.00972165	0.04006513	-0.01329260	-0.03599627	-0.01000574	-0.04293868	0.03808200	0.00029991	0.01242652	0.02298105	-0.00496671	0.03173811	-0.00281299
30	0.29000000	0.10541231	0.04513726	0.01848504	-0.01639641	0.01428651	0.00859526	0.04064078	-0.00068518	0.01005914	0.00722777	0.00707140	0.00768920	0.03274304	-0.00778734	-0.03714446	0.01102657	-0.02500567	0.04722572	-0.00303824	0.00965293	0.02421122	-0.00217583	0.03802951	-0.00248450
31	0.30000000	0.10744176	0.04721142	0.01888703	-0.01079043	0.01030743	0.00971796	0.03916827	-0.00279997	0.00862228	0.01793958	0.00463892	0.00410980	0.03413994	-0.01152202	-0.04329256	0.01057788	0.00175501	0.04952987	0.00507013	0.00920004	0.02524485	-0.00194275	0.03627687	-0.00052040
